# xmcd
#
# Track frame offsets:
#	150
#	14950
#	36952
#	57257
#	76926
#	94528
#	114255
#	134554
#	156710
#	173059
#	189845
#	207642
#	224260
#
# Disc length: 3183 seconds
#
# Revision: 0
# Processed by: cddbd v1.5.2PL0 Copyright (c) Steve Scherf et al.
# Submitted via: audiograbber 1.83.01
#
DISCID=ba0c6d0d
DTITLE=Michel Delpech - Sexa
DYEAR=2009
DGENRE=Chanson française
TTITLE0=Je passe a la tele
TTITLE1=Lettre a tout ceux-la
TTITLE2=L'age d'or
TTITLE3=Johnny a Vegas
TTITLE4=Des compagnons
TTITLE5=Les belles et l'automne
TTITLE6=La nuit douce d'Alice
TTITLE7=Je ne t'aurai pas vue
TTITLE8=Le pour et le contre
TTITLE9=J'ai revu la cigarette
TTITLE10=Comme on s'traite
TTITLE11=Mon ange
TTITLE12=Cette petite femme pour moi
EXTD=
EXTT0=
EXTT1=
EXTT2=
EXTT3=
EXTT4=
EXTT5=
EXTT6=
EXTT7=
EXTT8=
EXTT9=
EXTT10=
EXTT11=
EXTT12=
PLAYORDER=
